<?xml version="1.0" encoding="UTF-8" standalone="no"?>
<!-- Creator: CorelDRAW -->

<svg
   xmlns:dc="http://purl.org/dc/elements/1.1/"
   xmlns:cc="http://creativecommons.org/ns#"
   xmlns:rdf="http://www.w3.org/1999/02/22-rdf-syntax-ns#"
   xmlns:svg="http://www.w3.org/2000/svg"
   xmlns="http://www.w3.org/2000/svg"
   xmlns:sodipodi="http://sodipodi.sourceforge.net/DTD/sodipodi-0.dtd"
   xmlns:inkscape="http://www.inkscape.org/namespaces/inkscape"
   xml:space="preserve"
   width="210mm"
   height="210mm"
   style="shape-rendering:geometricPrecision; text-rendering:geometricPrecision; image-rendering:optimizeQuality; fill-rule:evenodd; clip-rule:evenodd"
   viewBox="0 0 210 210"
   version="1.1"
   id="svg3794"
   sodipodi:docname="icon.svg"
   inkscape:version="0.92.4 (5da689c313, 2019-01-14)"><metadata
   id="metadata3798"><rdf:RDF><cc:Work
       rdf:about=""><dc:format>image/svg+xml</dc:format><dc:type
         rdf:resource="http://purl.org/dc/dcmitype/StillImage" /><dc:title /></cc:Work></rdf:RDF></metadata><sodipodi:namedview
   pagecolor="#ffffff"
   bordercolor="#666666"
   borderopacity="1"
   objecttolerance="10"
   gridtolerance="10"
   guidetolerance="10"
   inkscape:pageopacity="0"
   inkscape:pageshadow="2"
   inkscape:window-width="1856"
   inkscape:window-height="1016"
   id="namedview3796"
   showgrid="false"
   showguides="false"
   inkscape:zoom="0.539876"
   inkscape:cx="518.22323"
   inkscape:cy="463.34644"
   inkscape:window-x="64"
   inkscape:window-y="27"
   inkscape:window-maximized="1"
   inkscape:current-layer="layer4" />
 <defs
   id="defs3787">
  <style
   type="text/css"
   id="style3785">
   <![CDATA[
    .fil0 {fill:#156698}
   ]]>
  </style>
 
  
  
 
   
   
  </defs>
 <g
   inkscape:groupmode="layer"
   id="layer2"
   inkscape:label="Background"
   style="display:inline"><rect
     style="fill:#584325;fill-opacity:1;stroke-width:0.26458332"
     id="rect4662"
     width="212.69545"
     height="212.69545"
     x="0"
     y="-0.73512226" /></g>
<g
   inkscape:groupmode="layer"
   id="layer1"
   inkscape:label="icon"
   style="display:none"><g
     style="clip-rule:evenodd;fill:#ffffff;fill-rule:evenodd;image-rendering:optimizeQuality;shape-rendering:geometricPrecision;text-rendering:geometricPrecision"
     id="g4656"
     transform="matrix(0.89956092,0,0,0.89956092,10.610158,10.523816)"><path
       style="fill:#ffffff;fill-opacity:1"
       inkscape:connector-curvature="0"
       d="m 134.99155,80.657242 c 0,1.6194 0.4883,3.1646 2.1097,3.1646 h 9.4939 v 10.5486 c 0,1.2154 0.3668,1.5823 1.5822,1.5823 h 3.692 c 1.2153,0 1.5824,-0.3669 1.5824,-1.5823 v -10.5486 h 9.4938 c 1.2345,0 2.1098,-0.8752 2.1098,-2.1099 v -3.1645 c 0,-1.2153 -0.3671,-1.5824 -1.5825,-1.5824 h -10.0211 v -10.5486 c 0,-1.2153 -0.3671,-1.5822 -1.5824,-1.5822 h -3.692 c -1.2154,0 -1.5822,0.3669 -1.5822,1.5822 v 10.5486 h -9.4939 c -1.6214,0 -2.1097,1.5452 -2.1097,3.1647 z"
       class="fil0"
       id="_61375096" /><path
       sodipodi:nodetypes="cssssssccssccccssssscccccscscscccccsscscsccccs"
       inkscape:connector-curvature="0"
       id="_60382664"
       transform="scale(0.26458333)"
       d="M 354.85352,27.175781 C 252.54586,51.233231 189.65745,75.708172 128.67969,143.41992 79.906017,197.5798 26.484375,280.76726 26.484375,382.10547 v 11.96094 c 0,113.06494 48.698981,200.49323 104.113285,258.69531 48.25285,50.68044 151.02167,112.08594 248.72851,112.08594 h 35.88086 c 97.68832,0 195.31522,-54.75361 244.70117,-104.1543 31.61235,-31.62217 52.37353,-57.45087 73.58008,-99.84961 15.25266,-30.49474 38.54883,-91.24552 38.54883,-134.88281 V 366.1582 c 0,-87.40875 -62.13741,-184.72845 -107.15234,-229.74414 C 631.64533,103.17501 608.23337,91.059894 567.91602,65.933594 546.34587,52.490948 471.51001,29.263672 437.13672,29.263672 l -12,67.769531 c 147.264,12.258147 277.1289,136.998497 277.1289,295.039067 v 7.97461 c 0,162.72491 -138.93769,295.03125 -303.00585,295.03124 -156.96681,0 -301.011723,-130.49758 -301.011723,-283.07031 v -33.88867 c 0,-62.17323 32.939343,-126.83898 60.349613,-162.91797 21.2905,-28.02408 70.33446,-73.48308 110.92773,-90.80469 -0.33498,1.68849 -0.70314,3.45152 -1.10937,5.29297 l -87.6875,397.48633 c -2.81952,12.78094 8.09528,28.3304 32.74609,46.64844 22.41129,15.46375 43.87435,25.93728 64.38867,31.41992 57.28527,15.31 106.92093,3.98806 148.9043,-33.9668 31.89252,-29.37299 52.72568,-66.21226 62.5,-110.51953 9.96228,-45.15933 8.45128,-86.61937 -4.5332,-124.37695 -14.84808,-42.31599 -42.01376,-68.74929 -81.49415,-79.30078 -23.22375,-6.20676 -46.92382,-3.74392 -71.10351,7.38867 -19.17013,8.86224 -31.96095,18.5277 -38.36914,28.99609 L 341.20117,78.451172 c 2.35357,-14.543525 6.84501,-28.727641 13.65235,-51.273438 z M 343.66797,295.80469 c 7.60708,-0.1099 15.1847,0.84413 22.73242,2.86133 29.80382,7.96533 49.11672,30.04463 57.9375,66.23828 7.53223,30.88662 6.78612,66.77871 -2.23633,107.67773 -7.80065,35.36061 -19.70407,63.30851 -35.71094,83.84375 -21.94513,28.87348 -50.52925,38.60304 -85.75195,29.18945 -13.16013,-3.51716 -26.09613,-9.9055 -38.80859,-19.16796 -16.20716,-12.00105 -22.99483,-23.96761 -20.36328,-35.89649 l 42.57422,-192.99219 c 4.32325,-19.59744 16.56232,-32.3421 36.71679,-38.23437 7.66644,-2.237 15.30308,-3.40963 22.91016,-3.51953 z"
       style="fill:#ffffff;fill-opacity:1;stroke-width:3.77952766" /></g></g><g
   inkscape:groupmode="layer"
   id="layer3"
   inkscape:label="icon 1"
   style="display:none"><path
     inkscape:connector-curvature="0"
     d="m 95.835058,138.81523 c 0,-13.11323 7.584862,-24.422 18.589752,-29.87255 1.51549,-2.11201 2.9087,-4.71685 3.16807,-7.00308 1.31169,-0.098 3.37187,-1.30381 3.97955,-6.058341 0.32607,-2.55288 -0.9708,-3.986939 -1.75633,-4.439004 0,0 1.95642,-3.71637 1.95642,-8.203546 0,-8.996622 -3.5312,-16.674161 -11.11605,-16.674161 0,0 -2.63451,-5.55796 -11.116056,-5.55796 -15.718111,0 -22.232122,10.082249 -22.232122,22.232121 0,4.09071 1.956426,8.203546 1.956426,8.203546 -0.785538,0.452346 -2.082409,1.889764 -1.756337,4.439004 0.607682,4.754101 2.667855,5.958201 3.97955,6.058341 0.500226,4.43521 5.269011,10.11195 6.93642,10.9382 v 7.41076 c -3.705353,11.11606 -33.34818,3.70531 -33.34818,29.64273 H 97.77296 c -1.233881,-3.48305 -1.937902,-7.21063 -1.937902,-11.11606 z"
     id="path2"
     style="fill:#ffffff;stroke-width:3.70535302" /><path
     inkscape:connector-curvature="0"
     d="m 129.18323,112.8778 c -14.32489,0 -25.93747,11.61253 -25.93747,25.93743 0,14.32491 11.61258,25.93757 25.93747,25.93757 14.3249,0 25.93747,-11.61266 25.93747,-25.93757 0,-14.3249 -11.61257,-25.93743 -25.93747,-25.93743 z m 11.11606,29.64288 h -7.41071 v 7.41061 c 0,2.04914 -1.65999,3.70545 -3.70535,3.70545 -2.04535,0 -3.70536,-1.65631 -3.70536,-3.70545 v -7.41061 h -7.4107 c -2.04535,0 -3.70535,-1.65631 -3.70535,-3.70545 0,-2.04899 1.66,-3.7053 3.70535,-3.7053 h 7.4107 v -7.41076 c 0,-2.049 1.66001,-3.7053 3.70536,-3.7053 2.04536,0 3.70535,1.6563 3.70535,3.7053 v 7.41076 h 7.41071 c 2.04536,0 3.70536,1.65631 3.70536,3.7053 0,2.04914 -1.66,3.70545 -3.70536,3.70545 z"
     id="path4"
     style="fill:#ffffff;stroke-width:3.70535302" /></g><g
   inkscape:groupmode="layer"
   id="layer4"
   inkscape:label="icon 2"><g
     id="background"
     transform="matrix(3.7924387,0,0,3.7924387,46.859846,30.389511)"><rect
       style="fill:none"
       y="0"
       x="0"
       height="32"
       width="32"
       id="rect2" /></g><g
     id="g4769"
     transform="matrix(4.7435309,0,0,4.7435309,47.551616,71.741154)"><path
       inkscape:connector-curvature="0"
       style="fill:#ffffff"
       d="M 20,7 C 19.449,7 19,6.551 19,6 V 4 c 0,-0.551 0.449,-1 1,-1 h 2 c 0.551,0 1,0.449 1,1 v 2 c 0,0.551 -0.449,1 -1,1 z"
       id="path4759" /><path
       inkscape:connector-curvature="0"
       style="fill:#ffffff"
       d="m 13,9.188 c -0.726,0 -1.396,0.213 -1.973,0.563 0.18,-0.056 0.367,-0.093 0.564,-0.093 1.068,0 1.933,0.865 1.933,1.934 0,1.066 -0.865,1.933 -1.933,1.933 -1.068,0 -1.933,-0.866 -1.933,-1.933 0,-0.199 0.039,-0.386 0.094,-0.565 C 9.4,11.604 9.188,12.274 9.188,13 c 0,2.107 1.705,3.813 3.813,3.813 2.105,0 3.813,-1.705 3.813,-3.813 0,-2.108 -1.709,-3.812 -3.814,-3.812 z"
       id="path4761" /><g
       id="g4765"><path
         inkscape:connector-curvature="0"
         style="fill:#ffffff"
         d="m 13,7 c 3.313,0 6,2.686 6,6 0,3.314 -2.688,6 -6,6 C 9.687,19 7,16.314 7,13 7,9.686 9.687,7 13,7 m 0,-2 c -4.411,0 -8,3.589 -8,8 0,4.411 3.589,8 8,8 4.411,0 8,-3.589 8,-8 0,-4.411 -3.589,-8 -8,-8 z"
         id="path4763" /></g><path
       inkscape:connector-curvature="0"
       style="fill:#ffffff"
       d="M 21.125,0 H 4.875 C 2.182,0 0,2.182 0,4.875 v 16.25 C 0,23.818 2.182,26 4.875,26 h 16.25 C 23.818,26 26,23.818 26,21.125 V 4.875 C 26,2.182 23.818,0 21.125,0 Z M 24,9 H 17.463 C 18.416,10.063 19,11.461 19,13 19,16.314 16.312,19 13,19 9.687,19 7,16.314 7,13 7,11.461 7.584,10.062 8.537,9 H 2 V 4.875 C 2,3.29 3.29,2 4.875,2 h 16.25 C 22.711,2 24,3.29 24,4.875 Z"
       id="path4767" /></g><g
     id="g4771"
     transform="matrix(4.9295457,0,0,4.9295457,44.036406,61.360128)" /><g
     id="g4773"
     transform="matrix(4.9295457,0,0,4.9295457,44.036406,61.360128)" /><g
     id="g4775"
     transform="matrix(4.9295457,0,0,4.9295457,44.036406,61.360128)" /><g
     id="g4777"
     transform="matrix(4.9295457,0,0,4.9295457,44.036406,61.360128)" /><g
     id="g4779"
     transform="matrix(4.9295457,0,0,4.9295457,44.036406,61.360128)" /><g
     id="g4781"
     transform="matrix(4.9295457,0,0,4.9295457,44.036406,61.360128)" /><g
     id="g4783"
     transform="matrix(4.9295457,0,0,4.9295457,44.036406,61.360128)" /><g
     id="g4785"
     transform="matrix(4.9295457,0,0,4.9295457,44.036406,61.360128)" /><g
     id="g4787"
     transform="matrix(4.9295457,0,0,4.9295457,44.036406,61.360128)" /><g
     id="g4789"
     transform="matrix(4.9295457,0,0,4.9295457,44.036406,61.360128)" /><g
     id="g4791"
     transform="matrix(4.9295457,0,0,4.9295457,44.036406,61.360128)" /><g
     id="g4793"
     transform="matrix(4.9295457,0,0,4.9295457,44.036406,61.360128)" /><g
     id="g4795"
     transform="matrix(4.9295457,0,0,4.9295457,44.036406,61.360128)" /><g
     id="g4797"
     transform="matrix(4.9295457,0,0,4.9295457,44.036406,61.360128)" /><g
     id="g4799"
     transform="matrix(4.9295457,0,0,4.9295457,44.036406,61.360128)" /><path
     inkscape:connector-curvature="0"
     id="path2-3"
     d="M 181.70765,82.770235 158.49999,59.562575 V 32.753838 c 0,-4.847396 -3.92811,-8.775819 -8.78261,-8.775819 -4.84338,0 -8.77149,3.928423 -8.77149,8.775819 v 9.254935 L 123.66595,24.728217 c -8.54338,-8.538736 -23.39745,-8.52359 -31.921355,0.01545 l -58.027788,58.02657 c -3.425519,3.432305 -3.425519,8.98601 0,12.413058 3.427048,3.431385 8.991571,3.431385 12.417393,0 l 58.02223,-58.028099 c 1.89018,-1.88029 5.22173,-1.88029 7.10201,-0.0056 l 58.03213,58.03367 c 1.72079,1.715844 3.96427,2.569274 6.20715,2.569274 2.2475,0 4.49471,-0.854366 6.21024,-2.569274 3.42674,-3.426745 3.42674,-8.980448 -3.1e-4,-12.41307 z"
     style="fill:#ffffff;stroke-width:0.30910569" /></g></svg>